<svg xmlns="http://www.w3.org/2000/svg" id="prefix__ロゴ" width="120" height="107.017" viewBox="0 0 120 107.017">
    <defs>
        <style>
            .prefix__cls-3{fill:#0c1015}
        </style>
    </defs>
    <g id="prefix__グループ_3" data-name="グループ 3">
        <g id="prefix__グループ_1" data-name="グループ 1" transform="translate(38.746)">
            <path id="prefix__パス_1" d="M1581.971 282.237c-9.525 0-19.817-5.436-19.817-15.62v-2.125h8.676v2.6c0 5.281 6.33 7.321 11.141 7.321s11.141-2.04 11.141-7.321v-2.6h8.676v2.125c0 10.183-10.288 15.62-19.817 15.62z" data-name="パス 1" transform="translate(-1562.154 -219.997)" style="fill:#2b527a"/>
            <path id="prefix__パス_2" d="M1570.781 239.895l.233-4.744a3.11 3.11 0 0 1 3.11-3.11h7.89c4.214 0 10.432 3.628 11.016 7.854h8.687c-.579-5.019-5.125-10.908-10.249-12.4 3.868-2.17 5.773-6.579 5.773-12.144v.893c0-10-6.646-15.957-16.076-16.6-9.9-.673-19.205 6.9-18.64 16.6s.583 6.007.583 11.367-.817 12.286-.817 12.286zm.233-24.125c0-5.093 5.484-8.9 10.151-8.205 4.291.638 7.589 3.112 7.589 8.205v.238c0 5.187-3.156 8.3-7.589 8.3h-7.042a3.109 3.109 0 0 1-3.11-3.11z" data-name="パス 2" transform="translate(-1562.197 -199.602)" style="fill:#072145"/>
        </g>
        <g id="prefix__グループ_2" data-name="グループ 2" transform="translate(0 82.556)">
            <path id="prefix__パス_3" d="M1513.55 344.28q-1.95 0-3.882-.119a26.981 26.981 0 0 1-3.426-.444.732.732 0 0 1-.593-.718v-22.385a34.07 34.07 0 0 1 3.591-.462q1.949-.153 3.625-.154a24.675 24.675 0 0 1 4.156.325 9.837 9.837 0 0 1 3.266 1.112 5.831 5.831 0 0 1 2.138 2.069 6.054 6.054 0 0 1 .769 3.164 5.021 5.021 0 0 1-2.736 4.48 5.6 5.6 0 0 1 3.078 2.325 6.692 6.692 0 0 1 .821 3.317 6.371 6.371 0 0 1-2.719 5.609q-2.719 1.882-8.088 1.881zm-2.7-15.437a.73.73 0 0 0 .73.73h1.869a7.242 7.242 0 0 0 3.522-.632 2.19 2.19 0 0 0 1.06-2.035 2.091 2.091 0 0 0-1.094-2.018 7.036 7.036 0 0 0-3.215-.581q-.685 0-1.471.017c-.252.006-.491.015-.717.029a.729.729 0 0 0-.685.729zm0 5.531v4.726a.731.731 0 0 0 .675.728c.19.015.387.027.591.037q.684.035 1.5.034a9.243 9.243 0 0 0 3.865-.684 2.537 2.537 0 0 0 1.471-2.531 2.48 2.48 0 0 0-1.231-2.343 7.22 7.22 0 0 0-3.523-.7h-2.622a.73.73 0 0 0-.729.734z" class="prefix__cls-3" data-name="パス 3" transform="translate(-1505.649 -319.998)"/>
            <path id="prefix__パス_4" d="M1550.137 333.068q-.684-.171-1.607-.359a9.977 9.977 0 0 0-1.984-.188 9.211 9.211 0 0 0-1.145.086c-.145.019-.277.038-.4.057a.729.729 0 0 0-.611.721v13.159h-5.1v-17.032a30.657 30.657 0 0 1 3.232-.906 18.647 18.647 0 0 1 4.155-.427q.41 0 .992.051t1.163.136q.581.085 1.163.205a5.522 5.522 0 0 1 .992.291z" class="prefix__cls-3" data-name="パス 4" transform="translate(-1516.224 -322.569)"/>
            <path id="prefix__パス_5" d="M1559.261 337.638a11 11 0 0 1 .735-4.189 8.989 8.989 0 0 1 1.932-2.993 8.04 8.04 0 0 1 2.753-1.812 8.616 8.616 0 0 1 3.2-.616 7.948 7.948 0 0 1 6.053 2.343q2.223 2.342 2.223 6.891 0 .444-.034.974t-.069.941h-11.56a3.384 3.384 0 0 0 1.471 2.5 5.908 5.908 0 0 0 3.488.924 14.7 14.7 0 0 0 2.753-.257 10.371 10.371 0 0 0 2.206-.632l.684 4.138a7.078 7.078 0 0 1-1.094.41 14.328 14.328 0 0 1-1.522.359q-.838.154-1.8.256a17.938 17.938 0 0 1-1.915.1 11.326 11.326 0 0 1-4.224-.719 8.209 8.209 0 0 1-2.975-1.967 7.785 7.785 0 0 1-1.745-2.958 11.714 11.714 0 0 1-.56-3.693zm11.135-1.949a.728.728 0 0 0 .714-.881c-.029-.13-.062-.257-.1-.384a3.2 3.2 0 0 0-.582-1.094 3.1 3.1 0 0 0-.992-.786 3.233 3.233 0 0 0-1.487-.308 3.422 3.422 0 0 0-1.471.291 3.042 3.042 0 0 0-1.026.769 3.448 3.448 0 0 0-.633 1.112q-.06.17-.111.341a.732.732 0 0 0 .7.941z" class="prefix__cls-3" data-name="パス 5" transform="translate(-1522.499 -322.522)"/>
            <path id="prefix__パス_6" d="M1647.509 346.112a28.248 28.248 0 0 1-3.351.7 27.536 27.536 0 0 1-4.31.325 10.237 10.237 0 0 1-3.813-.615 5.792 5.792 0 0 1-2.412-1.727 6.733 6.733 0 0 1-1.265-2.651 14.251 14.251 0 0 1-.376-3.386v-10.02h5.1v9.405a7.285 7.285 0 0 0 .65 3.557 2.584 2.584 0 0 0 2.428 1.094q.547 0 1.163-.051t1.094-.119v-13.886h5.1z" class="prefix__cls-3" data-name="パス 6" transform="translate(-1545.355 -322.745)"/>
            <path id="prefix__パス_7" d="M1666.676 342.848a5.09 5.09 0 0 0 1.984-.274 1.057 1.057 0 0 0 .582-1.06 1.3 1.3 0 0 0-.753-1.077 14.315 14.315 0 0 0-2.291-1.044 23.113 23.113 0 0 1-2.172-.923 6.405 6.405 0 0 1-1.659-1.146 4.64 4.64 0 0 1-1.06-1.591 5.88 5.88 0 0 1-.376-2.222 4.807 4.807 0 0 1 1.881-4 8.184 8.184 0 0 1 5.164-1.471 16.6 16.6 0 0 1 3.147.291 14.706 14.706 0 0 1 2.394.633l-.889 3.967a18.668 18.668 0 0 0-1.932-.547 10.487 10.487 0 0 0-2.342-.24q-2.394 0-2.394 1.334a1.378 1.378 0 0 0 .1.547 1.165 1.165 0 0 0 .411.461 5.726 5.726 0 0 0 .838.481q.53.259 1.351.569a20.948 20.948 0 0 1 2.77 1.224 6.625 6.625 0 0 1 1.727 1.3 4.033 4.033 0 0 1 .889 1.553 6.871 6.871 0 0 1 .256 1.979 4.562 4.562 0 0 1-2 4.027 9.986 9.986 0 0 1-5.661 1.365 16.308 16.308 0 0 1-3.985-.41 16.064 16.064 0 0 1-2.206-.684l.855-4.138a16.657 16.657 0 0 0 2.668.8 12.948 12.948 0 0 0 2.703.296z" class="prefix__cls-3" data-name="パス 7" transform="translate(-1554.302 -322.525)"/>
            <path id="prefix__パス_8" d="M1609.152 328.732a36.96 36.96 0 0 1-3.386 10.95.366.366 0 0 1-.647.02c-.734-1.3-1.449-2.613-2.12-3.944q-.2-.4-.4-.809l2.883-6.214h-4.056c-.289.483-.528.986-.766 1.491a.182.182 0 0 1-.33 0c-.238-.505-.477-1.008-.766-1.491h-4.056l2.884 6.214q-.2.4-.4.809c-.662 1.314-1.367 2.61-2.091 3.893a.366.366 0 0 1-.656-.04 57.005 57.005 0 0 1-3.405-10.879l-5.34-.005a107.967 107.967 0 0 0 6.953 18h3.686l3.03-6.529a.365.365 0 0 1 .662 0l3.03 6.529h4.051a84.132 84.132 0 0 0 6.588-18z" class="prefix__cls-3" data-name="パス 8" transform="translate(-1531.058 -322.741)"/>
        </g>
    </g>
</svg>
