<svg xmlns="http://www.w3.org/2000/svg" width="23.625" height="29.529" viewBox="0 0 23.625 29.529"><defs><style>.a{fill:#fff;}</style></defs><path class="a" d="M17.289,18.241h2.953a1.476,1.476,0,1,1,0,2.953h-4.43a1.472,1.472,0,0,1-1.477-1.476V13.812a1.477,1.477,0,0,1,2.953,0ZM6.76,12.13a2.215,2.215,0,1,1,3.067-2.6,11.764,11.764,0,0,1,1.663-.809A3.691,3.691,0,0,1,13.6,2h4.43a3.691,3.691,0,0,1,2.109,6.722,11.926,11.926,0,0,1,1.663.809,2.215,2.215,0,1,1,3.067,2.6,11.812,11.812,0,1,1-18.107,0Zm9.053,16.446a8.859,8.859,0,1,0-8.859-8.859A8.859,8.859,0,0,0,15.813,28.577ZM13.6,4.953a.738.738,0,1,0,0,1.476h4.43a.738.738,0,1,0,0-1.476Z" transform="translate(-4 -2)"/></svg>