<svg xmlns="http://www.w3.org/2000/svg" width="29.531" height="29.529" viewBox="0 0 29.531 29.529"><defs><style>.a{fill:#fff;}</style></defs><path class="a" d="M18.242,28.485a11.761,11.761,0,0,0,6.076-2.638,14.691,14.691,0,0,1-3.049-7.605H18.242Zm-2.953,0V18.241H12.262a14.691,14.691,0,0,1-3.049,7.605,11.761,11.761,0,0,0,6.076,2.638Zm-3.027-13.2h3.027V5.044A11.761,11.761,0,0,0,9.213,7.683,14.691,14.691,0,0,1,12.262,15.288Zm5.98-10.244V15.288h3.027a14.691,14.691,0,0,1,3.049-7.605,11.761,11.761,0,0,0-6.076-2.638Zm-8.951,13.2H5.045a11.745,11.745,0,0,0,2.123,5.413A11.745,11.745,0,0,0,9.291,18.241ZM5.045,15.288H9.291A11.745,11.745,0,0,0,7.168,9.876a11.745,11.745,0,0,0-2.123,5.413Zm19.2,0h4.247a11.745,11.745,0,0,0-2.123-5.413A11.745,11.745,0,0,0,24.24,15.288Zm4.247,2.953H24.24a11.745,11.745,0,0,0,2.123,5.413A11.745,11.745,0,0,0,28.486,18.241ZM16.765,31.529A14.765,14.765,0,1,1,31.531,16.765,14.765,14.765,0,0,1,16.765,31.529Z" transform="translate(-2 -2)"/></svg>