<svg xmlns="http://www.w3.org/2000/svg" width="19.195" height="29.529" viewBox="0 0 19.195 29.529"><defs><style>.a{fill:#fff;}</style></defs><path class="a" d="M18.789,31.529V27.1a1.477,1.477,0,0,0-1.477-1.476h-4.43A1.477,1.477,0,0,0,11.406,27.1v4.429H5.5V6.429A4.43,4.43,0,0,1,9.93,2H20.265A4.43,4.43,0,0,1,24.7,6.429v25.1ZM11.406,7.906a1.476,1.476,0,1,0,0,2.953h1.477a1.476,1.476,0,1,0,0-2.953Zm0,4.429a1.476,1.476,0,1,0,0,2.953h1.477a1.476,1.476,0,1,0,0-2.953Zm0,4.429a1.476,1.476,0,1,0,0,2.953h1.477a1.476,1.476,0,1,0,0-2.953Zm0,4.429a1.476,1.476,0,1,0,0,2.953h1.477a1.476,1.476,0,1,0,0-2.953ZM17.312,7.906a1.476,1.476,0,1,0,0,2.953h1.477a1.476,1.476,0,1,0,0-2.953Zm0,4.429a1.476,1.476,0,1,0,0,2.953h1.477a1.476,1.476,0,1,0,0-2.953Zm0,4.429a1.476,1.476,0,1,0,0,2.953h1.477a1.476,1.476,0,1,0,0-2.953Zm0,4.429a1.476,1.476,0,1,0,0,2.953h1.477a1.476,1.476,0,1,0,0-2.953Z" transform="translate(-5.5 -2)"/></svg>