<svg xmlns="http://www.w3.org/2000/svg" width="29.531" height="23.623" viewBox="0 0 29.531 23.623"><defs><style>.a{fill:#fff;}</style></defs><path class="a" d="M8.092,8.429A5.909,5.909,0,0,1,13.812,4h5.906a5.909,5.909,0,0,1,5.72,4.429h.186a5.906,5.906,0,0,1,5.906,5.906v7.382a5.906,5.906,0,0,1-5.906,5.906H7.906A5.906,5.906,0,0,1,2,21.718V14.335A5.906,5.906,0,0,1,7.906,8.429Zm8.673,14.765a5.906,5.906,0,1,0-5.906-5.906A5.906,5.906,0,0,0,16.765,23.194Zm8.859-7.382a1.476,1.476,0,1,0-1.477-1.476A1.477,1.477,0,0,0,25.625,15.812Zm-8.859,4.429a2.953,2.953,0,1,1,2.953-2.953A2.953,2.953,0,0,1,16.765,20.241Z" transform="translate(-2 -4)"/></svg>