<svg xmlns="http://www.w3.org/2000/svg" width="29.531" height="20.67" viewBox="0 0 29.531 20.67"><defs><style>.a{fill:#fff;}</style></defs><path class="a" d="M28.578,10.906V7.953H4.953v2.953Zm0,4.429H4.953v7.382H28.578ZM4.953,5H28.578a2.953,2.953,0,0,1,2.953,2.953V22.718a2.953,2.953,0,0,1-2.953,2.953H4.953A2.953,2.953,0,0,1,2,22.718V7.953A2.953,2.953,0,0,1,4.953,5ZM7.906,18.288H9.383a1.476,1.476,0,1,1,0,2.953H7.906a1.476,1.476,0,1,1,0-2.953Zm7.383,0h7.383a1.476,1.476,0,1,1,0,2.953H15.289a1.476,1.476,0,1,1,0-2.953Z" transform="translate(-2 -5)"/></svg>