<svg xmlns="http://www.w3.org/2000/svg" width="26.216" height="27.68" viewBox="0 0 26.216 27.68"><defs><style>.a{fill:#fff;}</style></defs><path class="a" d="M8.915,18.606v8.3H25.3v-8.3ZM27.655,10.37a2.917,2.917,0,0,1,2.561,2.7v2.767a2.729,2.729,0,0,1-1.667,2.411,2.279,2.279,0,0,1,.028.357v8.3A3.055,3.055,0,0,1,25.3,29.676H8.915a3.055,3.055,0,0,1-3.277-2.767v-8.3a2.34,2.34,0,0,1,.028-.357A2.729,2.729,0,0,1,4,15.839V13.071a2.917,2.917,0,0,1,2.561-2.7C4.825,7.914,5.59,4.746,8.326,3.06a7.436,7.436,0,0,1,8.781.815,7.436,7.436,0,0,1,8.783-.817C28.629,4.744,29.393,7.914,27.655,10.37Zm-.716,2.7H7.277v2.767H26.939ZM15.469,7.537a3.055,3.055,0,0,0-3.277-2.767A3.055,3.055,0,0,0,8.915,7.537,3.055,3.055,0,0,0,12.192,10.3h3.277ZM18.746,10.3h3.277A3.055,3.055,0,0,0,25.3,7.537a3.055,3.055,0,0,0-3.277-2.767,3.055,3.055,0,0,0-3.277,2.767Zm-3.277,1.384h3.277v16.6H15.469Z" transform="translate(-4 -1.996)"/></svg>