<svg xmlns="http://www.w3.org/2000/svg" width="33.988" height="21.408" viewBox="0 0 33.988 21.408"><defs><style>.a{fill:#fff;}</style></defs><path class="a" d="M9.913,10.69V9.352a1.418,1.418,0,0,0-2.832,0V10.69H5.665a1.34,1.34,0,1,0,0,2.676H7.081V14.7a1.418,1.418,0,0,0,2.832,0V13.365h1.416a1.34,1.34,0,1,0,0-2.676ZM13.2,5.338h7.6a8.923,8.923,0,0,1,8.717-.385,7.976,7.976,0,0,1,4.479,7.074c0,4.434-3.8,13.379-8.5,13.379-2.8,0-5.281-3.181-6.829-6.689H15.326c-1.546,3.508-4.03,6.689-6.829,6.689C3.8,25.406,0,16.461,0,12.028A7.976,7.976,0,0,1,4.481,4.953,8.922,8.922,0,0,1,13.2,5.338Zm12.3,5.351a1.34,1.34,0,1,0-1.416-1.338A1.379,1.379,0,0,0,25.491,10.69Zm-2.832,2.676a1.34,1.34,0,1,0-1.416-1.338A1.379,1.379,0,0,0,22.659,13.365Zm5.665,0a1.34,1.34,0,1,0-1.416-1.338A1.379,1.379,0,0,0,28.324,13.365Zm-2.832,2.676A1.34,1.34,0,1,0,24.075,14.7,1.379,1.379,0,0,0,25.491,16.041Z" transform="translate(0 -3.998)"/></svg>