<svg xmlns="http://www.w3.org/2000/svg" width="29.531" height="28.053" viewBox="0 0 29.531 28.053"><defs><style>.a{fill:#fff;}</style></defs><path class="a" d="M31.531,17.623V27.958a2.953,2.953,0,0,1-2.953,2.953H25.625a2.953,2.953,0,0,1-2.953-2.953V20.576a2.953,2.953,0,0,1,2.953-2.953h2.953a11.812,11.812,0,0,0-23.625,0H7.906a2.953,2.953,0,0,1,2.953,2.953v7.382a2.953,2.953,0,0,1-2.953,2.953H4.953A2.953,2.953,0,0,1,2,27.958V17.623a14.765,14.765,0,0,1,29.531,0Z" transform="translate(-2 -2.857)"/></svg>