<svg xmlns="http://www.w3.org/2000/svg" width="29.479" height="29.479" viewBox="0 0 29.479 29.479"><defs><style>.a{fill:#fff;}</style></defs><path class="a" d="M20.7,0H8.781A8.791,8.791,0,0,0,0,8.782V20.7a8.791,8.791,0,0,0,8.783,8.781H20.7A8.791,8.791,0,0,0,29.479,20.7V8.781A8.791,8.791,0,0,0,20.7,0Zm5.818,20.7A5.817,5.817,0,0,1,20.7,26.513H8.781A5.817,5.817,0,0,1,2.965,20.7V8.781A5.817,5.817,0,0,1,8.783,2.965H20.7a5.817,5.817,0,0,1,5.816,5.817V20.7Z"/><path class="a" d="M12.442,4.819a7.624,7.624,0,1,0,7.626,7.623,7.634,7.634,0,0,0-7.626-7.623Zm0,12.283A4.658,4.658,0,1,1,17.1,12.444,4.658,4.658,0,0,1,12.442,17.1Z" transform="translate(2.297 2.296)"/><ellipse class="a" cx="1.826" cy="1.826" rx="1.826" ry="1.826" transform="translate(20.552 5.346)"/></svg>