<svg xmlns="http://www.w3.org/2000/svg" width="23.65" height="29.928" viewBox="0 0 23.65 29.928"><defs><style>.a{fill:#fff;}</style></defs><path class="a" d="M8.248,23.868A12.644,12.644,0,0,0,6.52,30.253a1.477,1.477,0,0,1-2.953,0A15.6,15.6,0,0,1,6.2,21.572a10.338,10.338,0,0,1,.092-11.425Q9.488,5.415,27.217,1.8q-.594,15.173-3.784,19.906A10.336,10.336,0,0,1,8.248,23.868Zm1.781-2.362a7.383,7.383,0,0,0,10.956-1.453c1.482-2.2,2.565-7.109,3.077-14.543C15.286,7.558,10.089,9.8,8.742,11.8a7.379,7.379,0,0,0-.527,7.341,15.739,15.739,0,0,1,2.067-1.713l.75-.52a1.477,1.477,0,1,1,1.682,2.427l-.749.52a12.647,12.647,0,0,0-1.937,1.652Z" transform="translate(-3.567 -1.801)"/></svg>