<svg xmlns="http://www.w3.org/2000/svg" width="29.533" height="29.529" viewBox="0 0 29.533 29.529"><defs><style>.a{fill:#fff;}</style></defs><path class="a" d="M12.336,21.072v.861a6.644,6.644,0,0,0,13.289,0V19.467a4.431,4.431,0,1,1,2.953,0v2.466a9.6,9.6,0,0,1-19.2,0v-.861A8.862,8.862,0,0,1,2,12.335V4.953A2.953,2.953,0,0,1,4.953,2H6.43a1.476,1.476,0,1,1,0,2.953H4.953v7.382a5.906,5.906,0,0,0,11.812,0V4.953H15.289a1.476,1.476,0,1,1,0-2.953h1.477a2.953,2.953,0,0,1,2.953,2.953v7.382a8.862,8.862,0,0,1-7.382,8.736ZM27.1,16.765a1.476,1.476,0,1,0-1.477-1.476A1.477,1.477,0,0,0,27.1,16.765Z" transform="translate(-2 -2)"/></svg>