<svg xmlns="http://www.w3.org/2000/svg" width="23.625" height="29.529" viewBox="0 0 23.625 29.529"><defs><style>.a{fill:#fff;}</style></defs><path class="a" d="M8.43,2H23.2a4.43,4.43,0,0,1,4.43,4.429V27.1a4.43,4.43,0,0,1-4.43,4.429H8.43A4.43,4.43,0,0,1,4,27.1V6.429A4.43,4.43,0,0,1,8.43,2ZM20.242,4.953a1.476,1.476,0,1,0,0,2.953H23.2a1.476,1.476,0,1,0,0-2.953ZM8.43,15.288a1.476,1.476,0,1,0,0,2.953H23.2a1.476,1.476,0,1,0,0-2.953Zm0,4.429a1.476,1.476,0,1,0,0,2.953H23.2a1.476,1.476,0,1,0,0-2.953Zm0,4.429a1.476,1.476,0,1,0,0,2.953h7.383a1.476,1.476,0,1,0,0-2.953ZM20.242,9.382a1.476,1.476,0,1,0,0,2.953H23.2a1.476,1.476,0,1,0,0-2.953ZM8.43,4.953A1.477,1.477,0,0,0,6.953,6.429v4.429A1.477,1.477,0,0,0,8.43,12.335h7.383a1.477,1.477,0,0,0,1.477-1.476V6.429a1.477,1.477,0,0,0-1.477-1.476Z" transform="translate(-4 -2)"/></svg>