<svg xmlns="http://www.w3.org/2000/svg" width="29.529" height="29.529" viewBox="0 0 29.529 29.529"><defs><style>.a{fill:#fff;}</style></defs><path class="a" d="M8.287,12.164l8.434,14.9,8.3-14.514a24.816,24.816,0,0,1-6.264-1.465,2.481,2.481,0,0,0-1.152-.219c-.227.03-2.544.84-3.9,1.184a12.429,12.429,0,0,1-5.412.111ZM6.2,8.488a10.958,10.958,0,0,0,6.769.7c1.09-.276,3.659-1.175,4.257-1.251a5.221,5.221,0,0,1,2.5.362,19.159,19.159,0,0,0,6.944,1.342l1.31-2.291A27.683,27.683,0,0,0,5.539,7.309L6.2,8.486ZM2.8,5.349A30.579,30.579,0,0,1,30.736,5.4a1.476,1.476,0,0,1,.6,2.042L18,30.785a1.477,1.477,0,0,1-2.566-.006L2.192,7.389A1.476,1.476,0,0,1,2.8,5.352ZM13.812,16.765a1.476,1.476,0,1,1,1.477-1.476A1.477,1.477,0,0,1,13.812,16.765Zm4.43,4.429a1.476,1.476,0,1,1,1.477-1.476A1.477,1.477,0,0,1,18.242,21.194Z" transform="translate(-2.001 -2)"/></svg>