<svg xmlns="http://www.w3.org/2000/svg" width="26.568" height="26.566" viewBox="0 0 26.568 26.566"><defs><style>.a{fill:#fff;}</style></defs><path class="a" d="M16.933,21.459l.112-1.571,1.369-.781a17.193,17.193,0,0,0,3.591-2.773c3.9-3.9,5.088-8.484,3.654-9.919s-6.02-.245-9.919,3.654a17.214,17.214,0,0,0-2.773,3.591l-.783,1.369-1.57.112A5.866,5.866,0,0,0,7.138,16.6a16.31,16.31,0,0,1,8.337,8.336,5.866,5.866,0,0,0,1.459-3.477Zm-4.39,4.177a9.873,9.873,0,0,1-.979,1.138q-2.6,2.6-7.832,1.565Q2.705,23.106,5.3,20.509a10.121,10.121,0,0,1,1.14-.979,13.252,13.252,0,0,0-3.836-1.2A8.859,8.859,0,0,1,10.4,12.2a20.135,20.135,0,0,1,3.248-4.215c4.9-4.9,11.213-6.536,14.1-3.654s1.246,9.194-3.654,14.094a20.136,20.136,0,0,1-4.216,3.248,8.864,8.864,0,0,1-6.138,7.8,13.251,13.251,0,0,0-1.2-3.836ZM10,22.077a3.839,3.839,0,0,0-.8-.613,5.843,5.843,0,0,0-2.075,1.394A4.7,4.7,0,0,0,6.4,25.671a4.727,4.727,0,0,0,2.813-.723,5.816,5.816,0,0,0,1.394-2.074,3.839,3.839,0,0,0-.611-.8ZM21.481,10.59a1.478,1.478,0,1,1,2.038-.051,1.476,1.476,0,0,1-2.038.051Z" transform="translate(-2.602 -2.904)"/></svg>