<svg xmlns="http://www.w3.org/2000/svg" width="26.531" height="23.623" viewBox="0 0 26.531 23.623"><defs><style>.a{fill:#fff;}</style></defs><path class="a" d="M13.321,27.624a2.953,2.953,0,1,1,2.953-2.953A2.953,2.953,0,0,1,13.321,27.624Zm10.336,0a2.953,2.953,0,1,1,2.953-2.953A2.953,2.953,0,0,1,23.657,27.624ZM4.406,6.839A1.42,1.42,0,0,1,4.406,4h1.7A2.84,2.84,0,0,1,8.878,6.224l1.85,8.33A2.84,2.84,0,0,0,13.5,16.777H24.593l2.129-8.519h-13.8a1.42,1.42,0,0,1,0-2.838h13.8a2.839,2.839,0,0,1,2.755,3.529l-2.129,8.516a2.839,2.839,0,0,1-2.755,2.151H13.5a5.679,5.679,0,0,1-5.545-4.448L6.105,6.839Z" transform="translate(-3.031 -4)"/></svg>