<svg xmlns="http://www.w3.org/2000/svg" width="35.438" height="31.004" viewBox="0 0 35.438 31.004"><defs><style>.a{fill:#fff;}</style></defs><path class="a" d="M2.949,13.631,7.1,17.8l9.35-9.376L12.3,4.254l-9.35,9.376Zm6.557,12,3.116-3.126A1.472,1.472,0,1,1,14.7,24.589l-3.116,3.126a1.476,1.476,0,0,1,0,2.083L9.5,31.882a1.466,1.466,0,0,1-2.078,0L5.35,29.8a1.476,1.476,0,0,1,0-2.085l2.078-2.083a1.466,1.466,0,0,1,2.078,0Zm13.5-9.376L32.359,6.88,30.281,4.8l-9.348,9.376c-1.147-1.152-1.347-2.816-.446-3.721L28.65,2.265c.9-.9,2.562-.7,3.709.447l2.078,2.082c1.149,1.152,1.348,2.819.446,3.721L26.72,16.7c-.9.9-2.562.7-3.709-.447Zm-1.364,5.708-7.272-7.291-1.039,1.042,7.272,7.292,1.039-1.042Zm2.078,2.085L22.684,25.09l2.6,2.6a.735.735,0,0,0,1.038-1.041l-2.6-2.6ZM3.037,9.373a2.215,2.215,0,0,1,.43-2.516L5.545,4.775a2.2,2.2,0,0,1,2.509-.433L10.219,2.17a2.933,2.933,0,0,1,4.155,0l4.155,4.168a2.953,2.953,0,0,1,0,4.167l-2.078,2.083L28.4,24.569A3.678,3.678,0,1,1,23.2,29.778L11.259,17.8,9.18,19.881a2.93,2.93,0,0,1-4.155,0L.87,15.714a2.953,2.953,0,0,1,0-4.168l2.166-2.17Z" transform="translate(-0.009 -1.309)"/></svg>