<svg xmlns="http://www.w3.org/2000/svg" width="29.531" height="29.529" viewBox="0 0 29.531 29.529"><defs><style>.a{fill:#fff;}</style></defs><path class="a" d="M10.859,2H22.672a8.859,8.859,0,0,1,8.859,8.859V22.671a8.859,8.859,0,0,1-8.859,8.859H10.859A8.859,8.859,0,0,1,2,22.671V10.859A8.859,8.859,0,0,1,10.859,2Zm0,2.953a5.906,5.906,0,0,0-5.906,5.906V22.671a5.906,5.906,0,0,0,5.906,5.906H22.672a5.906,5.906,0,0,0,5.906-5.906V10.859a5.906,5.906,0,0,0-5.906-5.906Zm8.859,10.335h4.43a1.476,1.476,0,1,1,0,2.953h-4.43a1.476,1.476,0,1,1,0-2.953Zm-2.953,5.906h7.383a1.476,1.476,0,1,1,0,2.953H16.765a1.476,1.476,0,1,1,0-2.953Zm0-11.812h7.383a1.476,1.476,0,1,1,0,2.953H16.765a1.476,1.476,0,1,1,0-2.953Zm-6.16,7.741,3.133-3.135a1.477,1.477,0,0,1,2.088,2.089l-4.176,4.175a1.477,1.477,0,0,1-2.089,0L7.474,18.167A1.476,1.476,0,1,1,9.562,16.08l1.044,1.044Z" transform="translate(-2 -2)"/></svg>